<svg width="24" height="24" viewBox="0 0 24 24" fill="none" xmlns="http://www.w3.org/2000/svg">
<path d="M19.075 19.075H19H5H4.925V19V5V4.925H5H10.925V3.075H5.00011C4.49002 3.07655 4.00126 3.27988 3.64057 3.64057C3.27987 4.00126 3.07655 4.49002 3.075 5.00011V18.9999C3.07655 19.51 3.27987 19.9987 3.64057 20.3594C4.00123 20.7201 4.48995 20.9234 5 20.925C5.00007 20.925 5.00015 20.925 5.00022 20.925M19.075 19.075L5 21L5.00022 20.925M19.075 19.075V19V13.075H20.925L20.925 18.9998L19.075 19.075ZM5.00022 20.925H18.9998M5.00022 20.925H18.9998M18.9998 20.925L19 20.925L18.9998 20.925ZM17.075 5V2.075H18.925V5V5.075H19H21.925V6.925H19H18.925V7V9.925H17.075V7V6.925H17H14.075V5.075H17H17.075V5Z" fill="#1D2129" stroke="white" stroke-width="0.15"/>
</svg>
