<svg width="34" height="35" viewBox="0 0 34 35" fill="none" xmlns="http://www.w3.org/2000/svg">
<path d="M0.235352 17.4942C0.235352 11.7046 0.235352 8.80978 1.36205 6.59847C2.35316 4.65328 3.93465 3.07179 5.87984 2.08068C8.09115 0.953979 10.9859 0.953979 16.7754 0.953979C22.5649 0.953979 25.4597 0.953979 27.671 2.08068C29.6162 3.07179 31.1977 4.65328 32.1888 6.59847C33.3155 8.80978 33.3155 11.7046 33.3155 17.4942C33.3155 23.2839 33.3155 26.1787 32.1888 28.39C31.1977 30.3352 29.6162 31.9167 27.671 32.9078C25.4597 34.0345 22.5649 34.0345 16.7754 34.0345C10.9859 34.0345 8.09115 34.0345 5.87984 32.9078C3.93465 31.9167 2.35316 30.3352 1.36205 28.39C0.235352 26.1787 0.235352 23.2839 0.235352 17.4942Z" fill="#E8F3FF"/>
<path d="M16.6156 24.7646C12.5062 24.7646 9.1748 21.4332 9.1748 17.3237C9.1748 13.2142 12.5062 9.88281 16.6156 9.88281C20.7251 9.88281 24.0565 13.2142 24.0565 17.3237C24.0565 21.4332 20.7251 24.7646 16.6156 24.7646ZM15.8716 16.5796H12.8952V18.0678H15.8716V21.0442H17.3597V18.0678H20.3361V16.5796H17.3597V13.6033H15.8716V16.5796Z" fill="#165DFF"/>
</svg>
