<svg width="20" height="20" viewBox="0 0 20 20" fill="none" xmlns="http://www.w3.org/2000/svg">
<path d="M9.9998 18.9581C9.4998 18.9581 9.00814 18.8414 8.60814 18.6164L4.66647 16.3414C3.03314 15.2414 2.9248 15.0414 2.9248 13.3164V9.18306C2.9248 7.45806 3.03314 7.25806 4.63314 6.18306L8.61647 3.88306C9.40814 3.42472 10.5998 3.42472 11.3915 3.88306L15.3331 6.15806C16.9665 7.25806 17.0748 7.45806 17.0748 9.18306V13.3164C17.0748 15.0414 16.9665 15.2414 15.3665 16.3164L11.3831 18.6164C10.9915 18.8497 10.4915 18.9581 9.9998 18.9581ZM9.9998 4.79139C9.71647 4.79139 9.43314 4.84972 9.23314 4.96639L5.29147 7.24139C4.1748 7.99972 4.1748 7.99972 4.1748 9.18306V13.3164C4.1748 14.4997 4.1748 14.4997 5.33314 15.2831L9.24147 17.5331C9.64147 17.7664 10.3665 17.7664 10.7665 17.5331L14.7081 15.2581C15.8248 14.4997 15.8248 14.4997 15.8248 13.3164V9.18306C15.8248 7.99972 15.8248 7.99972 14.6665 7.21639L10.7581 4.96639C10.5665 4.84972 10.2831 4.79139 9.9998 4.79139Z" fill="white"/>
<path d="M14.5837 6.98317C14.242 6.98317 13.9587 6.69984 13.9587 6.35817V4.1665C13.9587 2.84984 13.4003 2.2915 12.0837 2.2915H7.91699C6.60033 2.2915 6.04199 2.84984 6.04199 4.1665V6.29984C6.04199 6.6415 5.75866 6.92484 5.41699 6.92484C5.07533 6.92484 4.79199 6.64984 4.79199 6.29984V4.1665C4.79199 2.14984 5.90033 1.0415 7.91699 1.0415H12.0837C14.1003 1.0415 15.2087 2.14984 15.2087 4.1665V6.35817C15.2087 6.69984 14.9253 6.98317 14.5837 6.98317Z" fill="white"/>
<path d="M11.3579 14.6915C11.1829 14.6915 10.9995 14.6582 10.8162 14.5832L9.99955 14.2665L9.18288 14.5915C8.74121 14.7665 8.29121 14.7249 7.95788 14.4832C7.62455 14.2415 7.44955 13.8249 7.47455 13.3499L7.52455 12.4749L6.96621 11.7999C6.66621 11.4249 6.56621 10.9915 6.69955 10.5915C6.82455 10.1999 7.16621 9.89985 7.62455 9.78319L8.47455 9.56652L8.94955 8.82485C9.45788 8.02485 10.5495 8.02485 11.0579 8.82485L11.5329 9.56652L12.3829 9.78319C12.8412 9.89985 13.1829 10.1999 13.3079 10.5915C13.4329 10.9832 13.3329 11.4249 13.0329 11.7915L12.4745 12.4665L12.5245 13.3415C12.5495 13.8165 12.3745 14.2249 12.0412 14.4749C11.8412 14.6165 11.6079 14.6915 11.3579 14.6915ZM7.93288 10.9999L8.49121 11.6749C8.68288 11.8999 8.79121 12.2582 8.77455 12.5499L8.72455 13.4249L9.54121 13.0999C9.81621 12.9915 10.1829 12.9915 10.4579 13.0999L11.2745 13.4249L11.2245 12.5499C11.2079 12.2582 11.3162 11.9082 11.5079 11.6749L12.0662 10.9999L11.2162 10.7832C10.9329 10.7082 10.6329 10.4915 10.4745 10.2499L10.0079 9.51652L9.53288 10.2499C9.37455 10.4999 9.07455 10.7165 8.79121 10.7915L7.93288 10.9999Z" fill="white"/>
</svg>
