<svg width="11" height="12" viewBox="0 0 11 12" fill="none" xmlns="http://www.w3.org/2000/svg">
<path fill-rule="evenodd" clip-rule="evenodd" d="M2.34078 9.24994C2.57012 8.59996 3.18444 8.16528 3.8737 8.16528C4.56295 8.16528 5.17727 8.59997 5.40661 9.24994L10.9154 9.24994V10.3333H5.40661C5.17727 10.9833 4.56295 11.4179 3.8737 11.4179C3.18444 11.4179 2.57012 10.9833 2.34078 10.3333L0.0820312 10.3333V9.24994H2.34078ZM5.59078 5.45844C5.82012 4.80846 6.43444 4.37378 7.1237 4.37378C7.81295 4.37378 8.42727 4.80846 8.65661 5.45844H10.9154V6.54177H8.65661C8.42727 7.19175 7.81295 7.62643 7.1237 7.62643C6.43444 7.62643 5.82012 7.19175 5.59078 6.54177H0.0820312V5.45844H5.59078ZM2.34078 1.66669C2.57012 1.01671 3.18444 0.582031 3.8737 0.582031C4.56295 0.582031 5.17727 1.01671 5.40661 1.66669L10.9154 1.66669V2.75002H5.40661C5.17727 3.4 4.56295 3.83468 3.8737 3.83468C3.18444 3.83468 2.57012 3.4 2.34078 2.75002L0.0820312 2.75002V1.66669H2.34078Z" fill="#165DFF"/>
</svg>
