<svg width="192" height="75" viewBox="0 0 192 75" fill="none" xmlns="http://www.w3.org/2000/svg">
<g filter="url(#filter0_dddd_194_1619)">
<rect x="2" y="2.64563" width="51.0167" height="51.0167" rx="10.5795" fill="white"/>
<path d="M46.7864 28.1558V30.2764C44.4297 29.7934 41.99 29.9026 39.6859 30.5943C37.3818 31.2859 35.2853 32.5384 33.5843 34.2394C31.8832 35.9405 30.6307 38.037 29.9391 40.3411C29.2475 42.6452 29.1382 45.0849 29.6213 47.4415H27.5006V28.1558H46.7864Z" fill="#081EFB"/>
<path d="M8.22992 28.1588V26.0382C9.19938 26.2408 10.1872 26.3423 11.1776 26.3411C13.0841 26.3415 14.9719 25.9664 16.7334 25.2372C18.4949 24.508 20.0955 23.439 21.4438 22.0913C22.7922 20.7435 23.8618 19.1433 24.5918 17.3821C25.3217 15.621 25.6976 13.7333 25.698 11.8268C25.6979 10.8355 25.5963 9.84678 25.3951 8.8761H27.5157V28.1588H8.22992Z" fill="#081EFB"/>
</g>
<path d="M69.6185 23.3275H77.6891V25.9999H65.3694V23.8887L73.1995 14.4017H65.5297V11.7293H77.4753V13.8405L69.6185 23.3275ZM93.975 18.9448C93.975 19.212 93.9483 19.6129 93.9216 19.9336H82.7243C83.1251 22.018 84.8622 23.3542 87.3475 23.3542C88.9509 23.3542 90.207 22.8465 91.2225 21.8042L93.013 23.862C91.7302 25.3852 89.7259 26.1869 87.2673 26.1869C82.4838 26.1869 79.3838 23.1137 79.3838 18.8646C79.3838 14.6155 82.5105 11.569 86.7596 11.569C90.9285 11.569 93.975 14.4819 93.975 18.9448ZM86.7596 14.2414C84.5949 14.2414 83.0182 15.631 82.6975 17.7155H90.7949C90.5277 15.6577 88.9509 14.2414 86.7596 14.2414ZM105.281 11.569C108.702 11.569 111.241 13.5198 111.241 17.8224V25.9999H107.9V18.2499C107.9 15.7112 106.644 14.4819 104.506 14.4819C102.128 14.4819 100.524 15.925 100.524 18.7844V25.9999H97.1838V11.7293H100.364V13.5733C101.46 12.2638 103.197 11.569 105.281 11.569ZM117.162 9.37761C115.932 9.37761 115.024 8.49572 115.024 7.37332C115.024 6.25091 115.932 5.36902 117.162 5.36902C118.391 5.36902 119.3 6.19746 119.3 7.29314C119.3 8.469 118.418 9.37761 117.162 9.37761ZM115.478 25.9999V11.7293H118.819V25.9999H115.478ZM130.846 22.8465L131.781 25.2249C130.98 25.8663 129.777 26.1869 128.575 26.1869C125.448 26.1869 123.657 24.5301 123.657 21.3766V14.5086H121.306V11.8362H123.657V8.57589H126.998V11.8362H130.819V14.5086H126.998V21.2965C126.998 22.6861 127.693 23.4344 128.975 23.4344C129.67 23.4344 130.338 23.2473 130.846 22.8465ZM142.627 11.569C146.047 11.569 148.586 13.5198 148.586 17.8224V25.9999H145.246V18.2499C145.246 15.7112 143.99 14.4819 141.852 14.4819C139.473 14.4819 137.87 15.925 137.87 18.7844V25.9999H134.529V6.17074H137.87V13.3862C138.966 12.2103 140.649 11.569 142.627 11.569Z" fill="white"/>
<path d="M71.9968 34.877C76.1123 34.877 78.4907 36.8278 78.4907 40.9433V49.3079H75.3373V47.5708C74.5356 48.8001 72.9856 49.4949 70.8477 49.4949C67.5874 49.4949 65.5296 47.7044 65.5296 45.2191C65.5296 42.8407 67.133 40.97 71.4623 40.97H75.1502V40.7562C75.1502 38.8054 73.9744 37.6562 71.5959 37.6562C69.9925 37.6562 68.3356 38.1907 67.2667 39.0726L65.9572 36.6407C67.4805 35.4649 69.6985 34.877 71.9968 34.877ZM71.5425 47.0631C73.1726 47.0631 74.589 46.3148 75.1502 44.845V43.1881H71.7028C69.4313 43.1881 68.8167 44.0433 68.8167 45.0855C68.8167 46.2881 69.8322 47.0631 71.5425 47.0631ZM89.4557 49.4949C84.9393 49.4949 81.7324 46.4484 81.7324 42.1726C81.7324 37.8968 84.9393 34.877 89.4557 34.877C92.2349 34.877 94.453 36.0261 95.5487 38.1907L92.9832 39.6873C92.128 38.3243 90.8453 37.7097 89.4289 37.7097C86.9703 37.7097 85.0997 39.42 85.0997 42.1726C85.0997 44.9519 86.9703 46.6355 89.4289 46.6355C90.8453 46.6355 92.128 46.0208 92.9832 44.6579L95.5487 46.1544C94.453 48.2924 92.2349 49.4949 89.4557 49.4949ZM103.888 34.877C108.004 34.877 110.382 36.8278 110.382 40.9433V49.3079H107.229V47.5708C106.427 48.8001 104.877 49.4949 102.739 49.4949C99.4786 49.4949 97.4208 47.7044 97.4208 45.2191C97.4208 42.8407 99.0243 40.97 103.354 40.97H107.041V40.7562C107.041 38.8054 105.866 37.6562 103.487 37.6562C101.884 37.6562 100.227 38.1907 99.1579 39.0726L97.8484 36.6407C99.3717 35.4649 101.59 34.877 103.888 34.877ZM103.434 47.0631C105.064 47.0631 106.48 46.3148 107.041 44.845V43.1881H103.594C101.323 43.1881 100.708 44.0433 100.708 45.0855C100.708 46.2881 101.723 47.0631 103.434 47.0631ZM125.436 29.4787H128.776V49.3079H125.569V47.4639C124.447 48.8268 122.79 49.4949 120.839 49.4949C116.697 49.4949 113.624 46.6087 113.624 42.1726C113.624 37.7364 116.697 34.877 120.839 34.877C122.683 34.877 124.313 35.4916 125.436 36.8011V29.4787ZM121.24 46.6355C123.645 46.6355 125.489 44.8984 125.489 42.1726C125.489 39.4467 123.645 37.7097 121.24 37.7097C118.835 37.7097 116.991 39.4467 116.991 42.1726C116.991 44.8984 118.835 46.6355 121.24 46.6355ZM146.562 42.2528C146.562 42.52 146.535 42.9208 146.508 43.2415H135.311C135.712 45.326 137.449 46.6622 139.934 46.6622C141.537 46.6622 142.793 46.1544 143.809 45.1122L145.599 47.1699C144.317 48.6932 142.312 49.4949 139.854 49.4949C135.07 49.4949 131.97 46.4217 131.97 42.1726C131.97 37.9235 135.097 34.877 139.346 34.877C143.515 34.877 146.562 37.7899 146.562 42.2528ZM139.346 37.5493C137.181 37.5493 135.605 38.939 135.284 41.0235H143.381C143.114 38.9657 141.537 37.5493 139.346 37.5493ZM167.782 34.877C171.23 34.877 173.635 36.8278 173.635 41.1303V49.3079H170.294V41.5579C170.294 39.0192 169.118 37.7899 167.087 37.7899C164.896 37.7899 163.373 39.2329 163.373 42.0657V49.3079H160.032V41.5579C160.032 39.0192 158.856 37.7899 156.825 37.7899C154.607 37.7899 153.111 39.2329 153.111 42.0657V49.3079H149.77V35.0373H152.95V36.8545C154.019 35.5718 155.676 34.877 157.627 34.877C159.712 34.877 161.449 35.6519 162.437 37.2554C163.587 35.7856 165.511 34.877 167.782 34.877ZM187.798 35.0373H191.004L184.323 50.457C183.014 53.6906 181.197 54.6794 178.818 54.6794C177.402 54.6794 175.905 54.1983 174.997 53.3699L176.333 50.9113C176.974 51.5259 177.883 51.9001 178.792 51.9001C179.967 51.9001 180.662 51.3389 181.304 49.9225L181.544 49.3613L175.317 35.0373H178.792L183.281 45.5932L187.798 35.0373Z" fill="white"/>
<defs>
<filter id="filter0_dddd_194_1619" x="0.23675" y="0.999929" width="71.7055" height="73.4688" filterUnits="userSpaceOnUse" color-interpolation-filters="sRGB">
<feFlood flood-opacity="0" result="BackgroundImageFix"/>
<feColorMatrix in="SourceAlpha" type="matrix" values="0 0 0 0 0 0 0 0 0 0 0 0 0 0 0 0 0 0 127 0" result="hardAlpha"/>
<feOffset dx="0.7053" dy="0.82285"/>
<feGaussianBlur stdDeviation="1.23428"/>
<feColorMatrix type="matrix" values="0 0 0 0 0 0 0 0 0 0 0 0 0 0 0 0 0 0 0.1 0"/>
<feBlend mode="normal" in2="BackgroundImageFix" result="effect1_dropShadow_194_1619"/>
<feColorMatrix in="SourceAlpha" type="matrix" values="0 0 0 0 0 0 0 0 0 0 0 0 0 0 0 0 0 0 127 0" result="hardAlpha"/>
<feOffset dx="2.93875" dy="3.40895"/>
<feGaussianBlur stdDeviation="2.23345"/>
<feColorMatrix type="matrix" values="0 0 0 0 0 0 0 0 0 0 0 0 0 0 0 0 0 0 0.09 0"/>
<feBlend mode="normal" in2="effect1_dropShadow_194_1619" result="effect2_dropShadow_194_1619"/>
<feColorMatrix in="SourceAlpha" type="matrix" values="0 0 0 0 0 0 0 0 0 0 0 0 0 0 0 0 0 0 127 0" result="hardAlpha"/>
<feOffset dx="6.5828" dy="7.64075"/>
<feGaussianBlur stdDeviation="3.0563"/>
<feColorMatrix type="matrix" values="0 0 0 0 0 0 0 0 0 0 0 0 0 0 0 0 0 0 0.05 0"/>
<feBlend mode="normal" in2="effect2_dropShadow_194_1619" result="effect3_dropShadow_194_1619"/>
<feColorMatrix in="SourceAlpha" type="matrix" values="0 0 0 0 0 0 0 0 0 0 0 0 0 0 0 0 0 0 127 0" result="hardAlpha"/>
<feOffset dx="11.755" dy="13.6358"/>
<feGaussianBlur stdDeviation="3.58528"/>
<feColorMatrix type="matrix" values="0 0 0 0 0 0 0 0 0 0 0 0 0 0 0 0 0 0 0.01 0"/>
<feBlend mode="normal" in2="effect3_dropShadow_194_1619" result="effect4_dropShadow_194_1619"/>
<feBlend mode="normal" in="SourceGraphic" in2="effect4_dropShadow_194_1619" result="shape"/>
</filter>
</defs>
</svg>
