<svg width="98" height="38" viewBox="0 0 98 38" fill="none" xmlns="http://www.w3.org/2000/svg">
<g filter="url(#filter0_dddd_194_1860)">
<rect x="1" y="1.47583" width="25.8657" height="25.8657" rx="5.36384" fill="#081EFB"/>
<path d="M23.7069 14.4095V15.4847C22.5121 15.2398 21.2751 15.2951 20.107 15.6458C18.9388 15.9965 17.8758 16.6315 17.0134 17.4939C16.1509 18.3564 15.5159 19.4193 15.1653 20.5875C14.8146 21.7557 14.7592 22.9926 15.0041 24.1874H13.929V14.4095H23.7069Z" fill="white"/>
<path d="M4.15875 14.4111V13.3359C4.65027 13.4386 5.15111 13.4901 5.65325 13.4895C6.61982 13.4897 7.57697 13.2995 8.47005 12.9298C9.36312 12.5601 10.1746 12.0181 10.8582 11.3348C11.5419 10.6514 12.0842 9.84016 12.4543 8.94724C12.8243 8.05432 13.0149 7.09725 13.0151 6.13067C13.0151 5.62807 12.9636 5.12678 12.8615 4.63464H13.9367V14.4111H4.15875Z" fill="white"/>
</g>
<path d="M35.2827 11.6451H39.3745V13H33.1284V11.9296L37.0983 7.11968H33.2097V5.76477H39.2661V6.83515L35.2827 11.6451ZM47.6316 9.42303C47.6316 9.55852 47.618 9.76176 47.6045 9.92435H41.9274C42.1306 10.9812 43.0113 11.6586 44.2714 11.6586C45.0843 11.6586 45.7211 11.4012 46.236 10.8728L47.1438 11.9161C46.4934 12.6884 45.4772 13.0948 44.2307 13.0948C41.8054 13.0948 40.2337 11.5367 40.2337 9.38239C40.2337 7.22808 41.819 5.68348 43.9733 5.68348C46.087 5.68348 47.6316 7.16033 47.6316 9.42303ZM43.9733 7.03839C42.8758 7.03839 42.0764 7.74294 41.9138 8.79977H46.0192C45.8837 7.75649 45.0843 7.03839 43.9733 7.03839ZM53.3638 5.68348C55.0981 5.68348 56.3852 6.67256 56.3852 8.85397V13H54.6916V9.07076C54.6916 7.78359 54.0548 7.16033 52.9709 7.16033C51.765 7.16033 50.952 7.89198 50.952 9.34174V13H49.2584V5.76477H50.8707V6.69966C51.4263 6.03576 52.307 5.68348 53.3638 5.68348ZM59.3873 4.57245C58.7641 4.57245 58.3034 4.12533 58.3034 3.55627C58.3034 2.9872 58.7641 2.54008 59.3873 2.54008C60.0106 2.54008 60.4712 2.96011 60.4712 3.51562C60.4712 4.11178 60.0241 4.57245 59.3873 4.57245ZM58.5337 13V5.76477H60.2274V13H58.5337ZM66.3253 11.4012L66.7995 12.6071C66.3931 12.9323 65.7833 13.0948 65.1736 13.0948C63.5884 13.0948 62.6806 12.2548 62.6806 10.656V7.17388H61.4883V5.81897H62.6806V4.16598H64.3742V5.81897H66.3118V7.17388H64.3742V10.6154C64.3742 11.3199 64.7265 11.6993 65.3769 11.6993C65.7291 11.6993 66.0679 11.6044 66.3253 11.4012ZM72.2981 5.68348C74.0324 5.68348 75.3196 6.67256 75.3196 8.85397V13H73.626V9.07076C73.626 7.78359 72.9891 7.16033 71.9052 7.16033C70.6993 7.16033 69.8864 7.89198 69.8864 9.34174V13H68.1928V2.94656H69.8864V6.60482C70.4419 6.00866 71.2955 5.68348 72.2981 5.68348Z" fill="#1D2129"/>
<path d="M36.4885 17.5007C38.5751 17.5007 39.7809 18.4898 39.7809 20.5764V24.8173H38.1822V23.9366C37.7757 24.5598 36.9898 24.9121 35.9059 24.9121C34.2529 24.9121 33.2096 24.0043 33.2096 22.7442C33.2096 21.5384 34.0226 20.5899 36.2175 20.5899H38.0873V20.4815C38.0873 19.4925 37.4911 18.9098 36.2853 18.9098C35.4723 18.9098 34.6323 19.1808 34.0903 19.6279L33.4264 18.395C34.1987 17.7988 35.3233 17.5007 36.4885 17.5007ZM36.2582 23.6791C37.0847 23.6791 37.8028 23.2998 38.0873 22.5546V21.7145H36.3395C35.1878 21.7145 34.8762 22.1481 34.8762 22.6765C34.8762 23.2862 35.391 23.6791 36.2582 23.6791ZM45.3402 24.9121C43.0504 24.9121 41.4245 23.3675 41.4245 21.1996C41.4245 19.0318 43.0504 17.5007 45.3402 17.5007C46.7493 17.5007 47.8739 18.0834 48.4294 19.1808L47.1287 19.9396C46.6951 19.2486 46.0448 18.9369 45.3267 18.9369C44.0801 18.9369 43.1317 19.8041 43.1317 21.1996C43.1317 22.6088 44.0801 23.4623 45.3267 23.4623C46.0448 23.4623 46.6951 23.1507 47.1287 22.4597L48.4294 23.2185C47.8739 24.3024 46.7493 24.9121 45.3402 24.9121ZM52.6575 17.5007C54.744 17.5007 55.9499 18.4898 55.9499 20.5764V24.8173H54.3511V23.9366C53.9446 24.5598 53.1588 24.9121 52.0749 24.9121C50.4219 24.9121 49.3786 24.0043 49.3786 22.7442C49.3786 21.5384 50.1915 20.5899 52.3865 20.5899H54.2563V20.4815C54.2563 19.4925 53.6601 18.9098 52.4542 18.9098C51.6413 18.9098 50.8012 19.1808 50.2593 19.6279L49.5954 18.395C50.3677 17.7988 51.4922 17.5007 52.6575 17.5007ZM52.4271 23.6791C53.2536 23.6791 53.9717 23.2998 54.2563 22.5546V21.7145H52.5084C51.3568 21.7145 51.0451 22.1481 51.0451 22.6765C51.0451 23.2862 51.56 23.6791 52.4271 23.6791ZM63.5822 14.7638H65.2758V24.8173H63.6499V23.8824C63.0809 24.5734 62.2408 24.9121 61.2517 24.9121C59.1516 24.9121 57.5935 23.4488 57.5935 21.1996C57.5935 18.9505 59.1516 17.5007 61.2517 17.5007C62.1866 17.5007 63.0131 17.8124 63.5822 18.4763V14.7638ZM61.455 23.4623C62.6744 23.4623 63.6093 22.5817 63.6093 21.1996C63.6093 19.8176 62.6744 18.9369 61.455 18.9369C60.2356 18.9369 59.3007 19.8176 59.3007 21.1996C59.3007 22.5817 60.2356 23.4623 61.455 23.4623ZM74.2931 21.2403C74.2931 21.3758 74.2795 21.579 74.266 21.7416H68.5889C68.7921 22.7984 69.6728 23.4759 70.9329 23.4759C71.7458 23.4759 72.3827 23.2185 72.8975 22.69L73.8053 23.7333C73.155 24.5056 72.1388 24.9121 70.8923 24.9121C68.467 24.9121 66.8953 23.354 66.8953 21.1996C66.8953 19.0453 68.4805 17.5007 70.6348 17.5007C72.7485 17.5007 74.2931 18.9776 74.2931 21.2403ZM70.6348 18.8557C69.5373 18.8557 68.7379 19.5602 68.5754 20.617H72.6807C72.5452 19.5738 71.7458 18.8557 70.6348 18.8557ZM85.052 17.5007C86.7999 17.5007 88.0193 18.4898 88.0193 20.6712V24.8173H86.3256V20.888C86.3256 19.6009 85.7295 18.9776 84.6998 18.9776C83.5887 18.9776 82.8164 19.7092 82.8164 21.1455V24.8173H81.1228V20.888C81.1228 19.6009 80.5266 18.9776 79.4969 18.9776C78.3723 18.9776 77.6136 19.7092 77.6136 21.1455V24.8173H75.9199V17.582H77.5323V18.5034C78.0742 17.853 78.9143 17.5007 79.9034 17.5007C80.9602 17.5007 81.8409 17.8937 82.3422 18.7066C82.9248 17.9614 83.9004 17.5007 85.052 17.5007ZM95.1999 17.582H96.8258L93.4385 25.3999C92.7746 27.0393 91.8533 27.5406 90.6474 27.5406C89.9293 27.5406 89.1705 27.2967 88.7099 26.8767L89.3873 25.6302C89.7125 25.9418 90.1732 26.1315 90.6338 26.1315C91.23 26.1315 91.5823 25.847 91.9075 25.1289L92.0294 24.8444L88.8725 17.582H90.6338L92.9101 22.9339L95.1999 17.582Z" fill="#1D2129"/>
<defs>
<filter id="filter0_dddd_194_1860" x="0.106026" y="0.641454" width="36.355" height="37.2489" filterUnits="userSpaceOnUse" color-interpolation-filters="sRGB">
<feFlood flood-opacity="0" result="BackgroundImageFix"/>
<feColorMatrix in="SourceAlpha" type="matrix" values="0 0 0 0 0 0 0 0 0 0 0 0 0 0 0 0 0 0 127 0" result="hardAlpha"/>
<feOffset dx="0.35759" dy="0.417188"/>
<feGaussianBlur stdDeviation="0.625782"/>
<feColorMatrix type="matrix" values="0 0 0 0 0 0 0 0 0 0 0 0 0 0 0 0 0 0 0.1 0"/>
<feBlend mode="normal" in2="BackgroundImageFix" result="effect1_dropShadow_194_1860"/>
<feColorMatrix in="SourceAlpha" type="matrix" values="0 0 0 0 0 0 0 0 0 0 0 0 0 0 0 0 0 0 127 0" result="hardAlpha"/>
<feOffset dx="1.48996" dy="1.72835"/>
<feGaussianBlur stdDeviation="1.13237"/>
<feColorMatrix type="matrix" values="0 0 0 0 0 0 0 0 0 0 0 0 0 0 0 0 0 0 0.09 0"/>
<feBlend mode="normal" in2="effect1_dropShadow_194_1860" result="effect2_dropShadow_194_1860"/>
<feColorMatrix in="SourceAlpha" type="matrix" values="0 0 0 0 0 0 0 0 0 0 0 0 0 0 0 0 0 0 127 0" result="hardAlpha"/>
<feOffset dx="3.3375" dy="3.87389"/>
<feGaussianBlur stdDeviation="1.54956"/>
<feColorMatrix type="matrix" values="0 0 0 0 0 0 0 0 0 0 0 0 0 0 0 0 0 0 0.05 0"/>
<feBlend mode="normal" in2="effect2_dropShadow_194_1860" result="effect3_dropShadow_194_1860"/>
<feColorMatrix in="SourceAlpha" type="matrix" values="0 0 0 0 0 0 0 0 0 0 0 0 0 0 0 0 0 0 127 0" result="hardAlpha"/>
<feOffset dx="5.95983" dy="6.9134"/>
<feGaussianBlur stdDeviation="1.81775"/>
<feColorMatrix type="matrix" values="0 0 0 0 0 0 0 0 0 0 0 0 0 0 0 0 0 0 0.01 0"/>
<feBlend mode="normal" in2="effect3_dropShadow_194_1860" result="effect4_dropShadow_194_1860"/>
<feBlend mode="normal" in="SourceGraphic" in2="effect4_dropShadow_194_1860" result="shape"/>
</filter>
</defs>
</svg>
