<svg width="14" height="14" viewBox="0 0 14 14" fill="none" xmlns="http://www.w3.org/2000/svg">
<path d="M7.36238 13.4199C10.8596 13.4199 13.6947 10.5848 13.6947 7.08754C13.6947 3.59028 10.8596 0.755182 7.36238 0.755182C3.86512 0.755182 1.03002 3.59028 1.03002 7.08754C1.03002 10.5848 3.86512 13.4199 7.36238 13.4199Z" stroke="#5C5C5C" stroke-width="0.139173"/>
<path d="M7.36225 7.63927L5.78376 5.79771C5.6673 5.66183 5.47847 5.66183 5.36201 5.79771C5.24554 5.93358 5.24554 6.15388 5.36201 6.28976L7.15137 8.37735C7.26784 8.51322 7.45666 8.51322 7.57313 8.37735L9.36249 6.28976C9.47896 6.15388 9.47896 5.93358 9.36249 5.79771C9.24603 5.66183 9.0572 5.66183 8.94073 5.79771L7.36225 7.63927Z" fill="#565656"/>
<mask id="mask0_194_2480" style="mask-type:luminance" maskUnits="userSpaceOnUse" x="5" y="5" width="5" height="4">
<path d="M7.36225 7.63927L5.78376 5.79771C5.6673 5.66183 5.47847 5.66183 5.36201 5.79771C5.24554 5.93358 5.24554 6.15388 5.36201 6.28976L7.15137 8.37735C7.26784 8.51322 7.45666 8.51322 7.57313 8.37735L9.36249 6.28976C9.47896 6.15388 9.47896 5.93358 9.36249 5.79771C9.24603 5.66183 9.0572 5.66183 8.94073 5.79771L7.36225 7.63927Z" fill="white"/>
</mask>
<g mask="url(#mask0_194_2480)">
</g>
</svg>
